<mxfile host="app.diagrams.net" modified="2020-10-13T02:34:07.014Z" agent="5.0 (Macintosh; Intel Mac OS X 10_15_6) AppleWebKit/537.36 (KHTML, like Gecko) Chrome/85.0.4183.121 Safari/537.36" etag="ci0S5VYHRm9bE2KgWJcI" version="13.7.9" type="github">
  <diagram id="6MgH4Fzq1EQ53hq7Mwng" name="Page-1">
    <mxGraphModel dx="1416" dy="1163" grid="1" gridSize="10" guides="1" tooltips="1" connect="1" arrows="1" fold="1" page="1" pageScale="1" pageWidth="1169" pageHeight="827" math="0" shadow="0">
      <root>
        <mxCell id="0" />
        <mxCell id="1" parent="0" />
        <mxCell id="s7AvnVAK4RiwC3oDzTE4-4" value="" style="group" vertex="1" connectable="0" parent="1">
          <mxGeometry x="210" y="280" width="130" height="130" as="geometry" />
        </mxCell>
        <mxCell id="s7AvnVAK4RiwC3oDzTE4-1" value="" style="ellipse;whiteSpace=wrap;html=1;aspect=fixed;" vertex="1" parent="s7AvnVAK4RiwC3oDzTE4-4">
          <mxGeometry x="50" width="80" height="80" as="geometry" />
        </mxCell>
        <mxCell id="s7AvnVAK4RiwC3oDzTE4-2" value="" style="ellipse;whiteSpace=wrap;html=1;aspect=fixed;" vertex="1" parent="s7AvnVAK4RiwC3oDzTE4-4">
          <mxGeometry y="50" width="80" height="80" as="geometry" />
        </mxCell>
        <mxCell id="s7AvnVAK4RiwC3oDzTE4-3" value="" style="endArrow=none;html=1;" edge="1" parent="s7AvnVAK4RiwC3oDzTE4-4">
          <mxGeometry width="50" height="50" relative="1" as="geometry">
            <mxPoint x="40" y="90" as="sourcePoint" />
            <mxPoint x="90" y="40" as="targetPoint" />
          </mxGeometry>
        </mxCell>
        <mxCell id="s7AvnVAK4RiwC3oDzTE4-5" value="" style="group" vertex="1" connectable="0" parent="1">
          <mxGeometry x="330" y="284" width="130" height="130" as="geometry" />
        </mxCell>
        <mxCell id="s7AvnVAK4RiwC3oDzTE4-6" value="" style="ellipse;whiteSpace=wrap;html=1;aspect=fixed;" vertex="1" parent="s7AvnVAK4RiwC3oDzTE4-5">
          <mxGeometry x="50" width="80" height="80" as="geometry" />
        </mxCell>
        <mxCell id="s7AvnVAK4RiwC3oDzTE4-7" value="" style="ellipse;whiteSpace=wrap;html=1;aspect=fixed;" vertex="1" parent="s7AvnVAK4RiwC3oDzTE4-5">
          <mxGeometry y="50" width="80" height="80" as="geometry" />
        </mxCell>
        <mxCell id="s7AvnVAK4RiwC3oDzTE4-8" value="" style="endArrow=none;html=1;" edge="1" parent="s7AvnVAK4RiwC3oDzTE4-5">
          <mxGeometry width="50" height="50" relative="1" as="geometry">
            <mxPoint x="40" y="90" as="sourcePoint" />
            <mxPoint x="90" y="40" as="targetPoint" />
          </mxGeometry>
        </mxCell>
        <mxCell id="s7AvnVAK4RiwC3oDzTE4-9" value="" style="group" vertex="1" connectable="0" parent="1">
          <mxGeometry x="450" y="284" width="130" height="130" as="geometry" />
        </mxCell>
        <mxCell id="s7AvnVAK4RiwC3oDzTE4-10" value="" style="ellipse;whiteSpace=wrap;html=1;aspect=fixed;" vertex="1" parent="s7AvnVAK4RiwC3oDzTE4-9">
          <mxGeometry x="50" width="80" height="80" as="geometry" />
        </mxCell>
        <mxCell id="s7AvnVAK4RiwC3oDzTE4-11" value="" style="ellipse;whiteSpace=wrap;html=1;aspect=fixed;" vertex="1" parent="s7AvnVAK4RiwC3oDzTE4-9">
          <mxGeometry y="50" width="80" height="80" as="geometry" />
        </mxCell>
        <mxCell id="s7AvnVAK4RiwC3oDzTE4-12" value="" style="endArrow=none;html=1;" edge="1" parent="s7AvnVAK4RiwC3oDzTE4-9">
          <mxGeometry width="50" height="50" relative="1" as="geometry">
            <mxPoint x="40" y="90" as="sourcePoint" />
            <mxPoint x="90" y="40" as="targetPoint" />
          </mxGeometry>
        </mxCell>
        <mxCell id="s7AvnVAK4RiwC3oDzTE4-13" value="" style="group" vertex="1" connectable="0" parent="1">
          <mxGeometry x="570" y="284" width="130" height="130" as="geometry" />
        </mxCell>
        <mxCell id="s7AvnVAK4RiwC3oDzTE4-14" value="" style="ellipse;whiteSpace=wrap;html=1;aspect=fixed;" vertex="1" parent="s7AvnVAK4RiwC3oDzTE4-13">
          <mxGeometry x="50" width="80" height="80" as="geometry" />
        </mxCell>
        <mxCell id="s7AvnVAK4RiwC3oDzTE4-15" value="" style="ellipse;whiteSpace=wrap;html=1;aspect=fixed;" vertex="1" parent="s7AvnVAK4RiwC3oDzTE4-13">
          <mxGeometry y="50" width="80" height="80" as="geometry" />
        </mxCell>
        <mxCell id="s7AvnVAK4RiwC3oDzTE4-16" value="" style="endArrow=none;html=1;" edge="1" parent="s7AvnVAK4RiwC3oDzTE4-13">
          <mxGeometry width="50" height="50" relative="1" as="geometry">
            <mxPoint x="40" y="90" as="sourcePoint" />
            <mxPoint x="90" y="40" as="targetPoint" />
          </mxGeometry>
        </mxCell>
        <mxCell id="s7AvnVAK4RiwC3oDzTE4-17" value="" style="group" vertex="1" connectable="0" parent="1">
          <mxGeometry x="690" y="294" width="130" height="130" as="geometry" />
        </mxCell>
        <mxCell id="s7AvnVAK4RiwC3oDzTE4-18" value="" style="ellipse;whiteSpace=wrap;html=1;aspect=fixed;" vertex="1" parent="s7AvnVAK4RiwC3oDzTE4-17">
          <mxGeometry x="50" width="80" height="80" as="geometry" />
        </mxCell>
        <mxCell id="s7AvnVAK4RiwC3oDzTE4-19" value="" style="ellipse;whiteSpace=wrap;html=1;aspect=fixed;" vertex="1" parent="s7AvnVAK4RiwC3oDzTE4-17">
          <mxGeometry y="50" width="80" height="80" as="geometry" />
        </mxCell>
        <mxCell id="s7AvnVAK4RiwC3oDzTE4-20" value="" style="endArrow=none;html=1;" edge="1" parent="s7AvnVAK4RiwC3oDzTE4-17">
          <mxGeometry width="50" height="50" relative="1" as="geometry">
            <mxPoint x="40" y="90" as="sourcePoint" />
            <mxPoint x="90" y="40" as="targetPoint" />
          </mxGeometry>
        </mxCell>
        <mxCell id="s7AvnVAK4RiwC3oDzTE4-24" value="" style="ellipse;whiteSpace=wrap;html=1;aspect=fixed;fillColor=#f8cecc;strokeColor=#b85450;" vertex="1" parent="1">
          <mxGeometry x="450" y="640" width="80" height="80" as="geometry" />
        </mxCell>
        <mxCell id="s7AvnVAK4RiwC3oDzTE4-25" value="" style="ellipse;whiteSpace=wrap;html=1;aspect=fixed;fillColor=#f8cecc;strokeColor=#b85450;" vertex="1" parent="1">
          <mxGeometry x="545" y="640" width="80" height="80" as="geometry" />
        </mxCell>
        <mxCell id="s7AvnVAK4RiwC3oDzTE4-26" value="" style="ellipse;whiteSpace=wrap;html=1;aspect=fixed;fillColor=#f8cecc;strokeColor=#b85450;" vertex="1" parent="1">
          <mxGeometry x="640" y="640" width="80" height="80" as="geometry" />
        </mxCell>
        <mxCell id="s7AvnVAK4RiwC3oDzTE4-27" value="" style="ellipse;whiteSpace=wrap;html=1;aspect=fixed;fillColor=#f8cecc;strokeColor=#b85450;" vertex="1" parent="1">
          <mxGeometry x="740" y="640" width="80" height="80" as="geometry" />
        </mxCell>
        <mxCell id="s7AvnVAK4RiwC3oDzTE4-28" value="" style="ellipse;whiteSpace=wrap;html=1;aspect=fixed;fillColor=#f8cecc;strokeColor=#b85450;" vertex="1" parent="1">
          <mxGeometry x="840" y="640" width="80" height="80" as="geometry" />
        </mxCell>
        <mxCell id="s7AvnVAK4RiwC3oDzTE4-23" value="气嘴" style="shape=display;whiteSpace=wrap;html=1;rotation=-180;" vertex="1" parent="1">
          <mxGeometry x="380" y="630" width="80" height="40" as="geometry" />
        </mxCell>
        <mxCell id="s7AvnVAK4RiwC3oDzTE4-22" value="气嘴" style="shape=display;whiteSpace=wrap;html=1;rotation=0;" vertex="1" parent="1">
          <mxGeometry x="520" y="690" width="80" height="40" as="geometry" />
        </mxCell>
        <mxCell id="s7AvnVAK4RiwC3oDzTE4-29" value="气嘴" style="shape=display;whiteSpace=wrap;html=1;rotation=-180;" vertex="1" parent="1">
          <mxGeometry x="480" y="630" width="80" height="40" as="geometry" />
        </mxCell>
        <mxCell id="s7AvnVAK4RiwC3oDzTE4-30" value="气嘴" style="shape=display;whiteSpace=wrap;html=1;rotation=0;" vertex="1" parent="1">
          <mxGeometry x="620" y="690" width="80" height="40" as="geometry" />
        </mxCell>
        <mxCell id="s7AvnVAK4RiwC3oDzTE4-31" value="气嘴" style="shape=display;whiteSpace=wrap;html=1;rotation=-180;" vertex="1" parent="1">
          <mxGeometry x="580" y="630" width="80" height="40" as="geometry" />
        </mxCell>
        <mxCell id="s7AvnVAK4RiwC3oDzTE4-32" value="气嘴" style="shape=display;whiteSpace=wrap;html=1;rotation=0;" vertex="1" parent="1">
          <mxGeometry x="720" y="690" width="80" height="40" as="geometry" />
        </mxCell>
        <mxCell id="s7AvnVAK4RiwC3oDzTE4-33" value="底部往上看的视图：" style="text;html=1;resizable=0;autosize=1;align=center;verticalAlign=middle;points=[];fillColor=none;strokeColor=none;rounded=0;" vertex="1" parent="1">
          <mxGeometry x="570" y="590" width="120" height="20" as="geometry" />
        </mxCell>
        <mxCell id="s7AvnVAK4RiwC3oDzTE4-34" value="吹起来的同时，带个旋转力。可以测试一下。 买个气嘴试试" style="text;html=1;resizable=0;autosize=1;align=center;verticalAlign=middle;points=[];fillColor=none;strokeColor=none;rounded=0;" vertex="1" parent="1">
          <mxGeometry x="455" y="740" width="330" height="20" as="geometry" />
        </mxCell>
      </root>
    </mxGraphModel>
  </diagram>
</mxfile>
